<svg aria-hidden="true" style="position: absolute; width: 0; height: 0; overflow: hidden;" version="1.1" xmlns="http://www.w3.org/2000/svg" xmlns:xlink="http://www.w3.org/1999/xlink">
<defs>
<symbol id="icon-antenna" viewBox="0 0 30 32">
<path fill="#2e2f42" style="fill: var(--color1, #2e2f42)" d="M29.702 22.098l-8.443-8.505 0.937-4.615c0.242 0.094 0.499 0.144 0.758 0.146h0.006c1.192 0.014 2.17-0.941 2.184-2.133s-0.941-2.17-2.133-2.184c-1.192-0.014-2.17 0.941-2.184 2.133-0.003 0.255 0.039 0.509 0.125 0.749l-4.96 0.605-8.091-8.133c-0.099-0.101-0.235-0.159-0.377-0.16-0.14 0.001-0.274 0.056-0.373 0.155l-1.513 1.504c-0.208 0.208-0.208 0.546 0 0.754l0.814 0.826c-3.153 5.798-2.129 12.978 2.519 17.663 0.043 0.041 0.092 0.074 0.146 0.098-0.034 0.18-0.051 0.364-0.052 0.547v6.187h-6.4c-1.472 0.002-2.665 1.195-2.667 2.667v1.067c0 0.295 0.239 0.533 0.533 0.533h24.533c0.295 0 0.533-0.239 0.533-0.533v-1.067c-0.002-1.472-1.195-2.665-2.667-2.667h-6.4v-2.742c1.003 0.21 2.024 0.317 3.049 0.32 2.458-0.003 4.877-0.615 7.040-1.783l0.818 0.823c0.099 0.101 0.235 0.159 0.377 0.16 0.14-0.001 0.274-0.056 0.373-0.155l1.513-1.504c0.208-0.208 0.208-0.546 0-0.754zM22.209 6.233c0.418-0.415 1.093-0.414 1.509 0.004s0.414 1.093-0.004 1.508c-0.2 0.199-0.47 0.31-0.752 0.31h-0.003c-0.589-0.003-1.064-0.483-1.061-1.072 0.002-0.282 0.115-0.552 0.314-0.751h-0.002zM20.954 9.738l-0.598 2.946-1.175-1.182 1.774-1.763zM20.348 8.836l-1.92 1.909-1.485-1.493 3.405-0.415zM22.933 28.8c0.884 0 1.6 0.716 1.6 1.6v0.533h-23.467v-0.533c0-0.884 0.716-1.6 1.6-1.6h20.267zM15.467 26.667v1.067h-5.333v-1.067h5.333zM10.133 25.6v-4.053c0-1.294 1.196-2.347 2.667-2.347s2.667 1.053 2.667 2.347v4.053h-5.333zM16.533 23.904v-2.357c0-1.882-1.675-3.413-3.733-3.413-1.331-0.020-2.576 0.657-3.281 1.786-4.058-4.274-4.971-10.645-2.279-15.887l18.602 18.708c-2.872 1.461-6.165 1.873-9.309 1.163zM27.822 23.22l-21.057-21.181 0.755-0.752 7.935 7.98c0.004 0 0.006 0.007 0.010 0.010l13.115 13.191-0.757 0.752z"></path>
<path fill="#4d5ae5" style="fill: var(--color2, #4d5ae5)" d="M12.805 20.267h-0.005c-0.884-0.001-1.601 0.714-1.602 1.598s0.714 1.601 1.598 1.602h0.005c0.884 0.001 1.601-0.714 1.602-1.598s-0.714-1.601-1.598-1.602zM13.178 22.245c-0.1 0.1-0.236 0.156-0.378 0.155-0.295-0.002-0.532-0.242-0.531-0.536 0.001-0.141 0.057-0.276 0.157-0.375s0.233-0.154 0.373-0.155c0.295 0.002 0.532 0.241 0.531 0.536-0.001 0.141-0.057 0.276-0.157 0.375h0.005z"></path>
</symbol>
<symbol id="icon-clock" viewBox="0 0 31 32">
<path fill="#2e2f42" style="fill: var(--color1, #2e2f42)" d="M30.609 15.301c-0.002-8.452-6.855-15.303-15.308-15.301s-15.303 6.855-15.301 15.308c0.001 6.658 4.307 12.551 10.649 14.576 0.061 0.019 0.124 0.029 0.187 0.029 0.121-0 0.239-0.032 0.342-0.094 0.135-0.080 0.236-0.207 0.283-0.356l3.865-12.25c1.057-0.005 1.909-0.866 1.903-1.923s-0.866-1.909-1.923-1.903c-0.284 0.001-0.565 0.067-0.82 0.191l-5.106-5.107c-0.253-0.245-0.657-0.238-0.902 0.016-0.239 0.247-0.239 0.639 0 0.886l5.103 5.109c-0.392 0.799-0.168 1.764 0.536 2.309l-3.683 11.673c-7.278-2.681-11.004-10.754-8.323-18.032s10.754-11.004 18.032-8.323c7.278 2.681 11.004 10.754 8.323 18.032-1.31 3.556-4.001 6.431-7.462 7.973l-0.398-1.874c-0.073-0.345-0.411-0.565-0.756-0.492-0.109 0.023-0.209 0.074-0.293 0.148l-3.837 3.426c-0.263 0.234-0.287 0.637-0.052 0.9 0.076 0.085 0.174 0.149 0.283 0.184l4.899 1.564c0.335 0.108 0.694-0.077 0.802-0.412 0.034-0.106 0.040-0.219 0.017-0.328l-0.391-1.839c5.664-2.388 9.342-7.942 9.329-14.089zM15.305 14.664c0.352 0 0.638 0.286 0.638 0.638s-0.286 0.638-0.638 0.638c-0.352 0-0.638-0.285-0.638-0.638s0.285-0.638 0.638-0.638zM17.405 29.528l2.184-1.948 0.603 2.84-2.787-0.892z"></path>
<path fill="#4d5ae5" style="fill: var(--color2, #4d5ae5)" d="M14.667 3.185v1.275c0 0.352 0.285 0.638 0.638 0.638s0.638-0.285 0.638-0.638v-1.275c0-0.352-0.286-0.638-0.638-0.638s-0.638 0.286-0.638 0.638z"></path>
<path fill="#4d5ae5" style="fill: var(--color2, #4d5ae5)" d="M3.188 14.664c-0.352 0-0.638 0.286-0.638 0.638s0.285 0.638 0.638 0.638h1.275c0.352 0 0.638-0.285 0.638-0.638s-0.285-0.638-0.638-0.638h-1.275z"></path>
<path fill="#4d5ae5" style="fill: var(--color2, #4d5ae5)" d="M27.421 15.939c0.352 0 0.638-0.285 0.638-0.638s-0.285-0.638-0.638-0.638h-1.275c-0.352 0-0.638 0.286-0.638 0.638s0.286 0.638 0.638 0.638h1.275z"></path>
</symbol>
<symbol id="icon-diagram" viewBox="0 0 41 32">
<path fill="#4d5ae5" style="fill: var(--color2, #4d5ae5)" d="M19.105 14.357h1.365v6.141h-1.365v-6.141z"></path>
<path fill="#4d5ae5" style="fill: var(--color2, #4d5ae5)" d="M24.563 17.086h1.365v3.412h-1.365v-3.412z"></path>
<path fill="#4d5ae5" style="fill: var(--color2, #4d5ae5)" d="M13.646 19.133h1.365v1.365h-1.365v-1.365z"></path>
<path fill="#4d5ae5" style="fill: var(--color2, #4d5ae5)" d="M9.552 18.451h1.365v2.047h-1.365v-2.047z"></path>
<path fill="#2e2f42" style="fill: var(--color1, #2e2f42)" d="M2.047 31.415h32.751c1.13 0 2.047-0.917 2.047-2.047v-2.729c0-1.13-0.917-2.047-2.047-2.047h-0.682v-17.015l3.876-3.671c0.9 0.443 1.988 0.174 2.577-0.638s0.506-1.931-0.195-2.648-1.818-0.824-2.643-0.253c-0.825 0.571-1.118 1.653-0.694 2.563l-2.92 2.768v-1.574c0-1.13-0.916-2.047-2.047-2.047h-27.292c-1.13 0-2.047 0.917-2.047 2.047v20.469h-0.682c-1.13 0-2.047 0.917-2.047 2.047v2.729c0 1.13 0.917 2.047 2.047 2.047zM38.892 1.393c0.377 0 0.682 0.305 0.682 0.682s-0.306 0.682-0.682 0.682c-0.377 0-0.682-0.305-0.682-0.682s0.305-0.682 0.682-0.682zM4.094 4.122c0-0.377 0.306-0.682 0.682-0.682h27.292c0.377 0 0.682 0.305 0.682 0.682v2.865l-1.365 1.297v-2.798c0-0.377-0.306-0.682-0.682-0.682h-24.563c-0.377 0-0.682 0.306-0.682 0.682v17.058c0 0.377 0.306 0.682 0.682 0.682h24.563c0.377 0 0.682-0.306 0.682-0.682v-12.383l1.365-1.293v15.723h-28.657v-20.469zM10.235 12.992c-0.923-0.003-1.734 0.612-1.979 1.502s0.135 1.834 0.928 2.305c0.794 0.471 1.805 0.353 2.468-0.289l2.372 1.19c0.276 0.138 0.61 0.073 0.815-0.157l5.042-5.672 4.956 3.714c0.266 0.199 0.637 0.178 0.878-0.050l4.307-4.080v10.408h-23.199v-15.693h23.199v3.405l-4.828 4.572-4.998-3.747c-0.284-0.213-0.683-0.173-0.919 0.092l-5.111 5.751-1.911-0.955c0.014-0.082 0.023-0.165 0.026-0.248 0-1.13-0.917-2.047-2.047-2.047zM10.917 15.039c0 0.377-0.305 0.682-0.682 0.682s-0.682-0.306-0.682-0.682c0-0.377 0.306-0.682 0.682-0.682s0.682 0.305 0.682 0.682zM15.011 25.956h6.823v0.682c0 0.377-0.306 0.682-0.682 0.682h-5.459c-0.377 0-0.682-0.305-0.682-0.682v-0.682zM1.365 26.639c0-0.377 0.306-0.682 0.682-0.682h11.599v0.682c0 1.13 0.916 2.047 2.047 2.047h5.459c1.13 0 2.047-0.916 2.047-2.047v-0.682h11.599c0.377 0 0.682 0.306 0.682 0.682v2.729c0 0.377-0.305 0.682-0.682 0.682h-32.751c-0.377 0-0.682-0.306-0.682-0.682v-2.729z"></path>
</symbol>
<symbol id="icon-astronaut" viewBox="0 0 36 32">
<path fill="#4d5ae5" style="fill: var(--color2, #4d5ae5)" d="M35.901 2.97c-0.071-0.216-0.258-0.374-0.483-0.407l-2.145-0.312-0.96-1.944c-0.201-0.41-0.872-0.41-1.074 0l-0.96 1.944-2.145 0.312c-0.226 0.033-0.413 0.19-0.484 0.407-0.070 0.217-0.012 0.455 0.151 0.614l1.553 1.513-0.366 2.137c-0.038 0.225 0.054 0.452 0.238 0.586 0.186 0.135 0.429 0.152 0.631 0.045l1.919-1.009 1.919 1.009c0.087 0.046 0.184 0.069 0.279 0.069 0.124 0 0.248-0.038 0.352-0.114 0.184-0.134 0.277-0.361 0.238-0.586l-0.366-2.137 1.553-1.513c0.163-0.159 0.221-0.397 0.151-0.614zM33.135 4.46c-0.141 0.137-0.205 0.336-0.172 0.53l0.214 1.251-1.123-0.59c-0.087-0.046-0.183-0.069-0.279-0.069s-0.191 0.023-0.279 0.069l-1.123 0.59 0.214-1.251c0.034-0.194-0.031-0.392-0.172-0.53l-0.91-0.886 1.256-0.183c0.195-0.028 0.364-0.151 0.451-0.328l0.562-1.138 0.562 1.138c0.087 0.177 0.256 0.299 0.451 0.328l1.256 0.183-0.908 0.886z"></path>
<path fill="#4d5ae5" style="fill: var(--color2, #4d5ae5)" d="M29.343 20.933h-1.198v1.198h1.198v-1.198z"></path>
<path fill="#4d5ae5" style="fill: var(--color2, #4d5ae5)" d="M29.343 23.328h-1.198v1.198h1.198v-1.198z"></path>
<path fill="#4d5ae5" style="fill: var(--color2, #4d5ae5)" d="M30.541 22.131h-1.198v1.198h1.198v-1.198z"></path>
<path fill="#4d5ae5" style="fill: var(--color2, #4d5ae5)" d="M28.145 22.131h-1.198v1.198h1.198v-1.198z"></path>
<path fill="#4d5ae5" style="fill: var(--color2, #4d5ae5)" d="M25.151 27.52h-1.198v1.198h1.198v-1.198z"></path>
<path fill="#4d5ae5" style="fill: var(--color2, #4d5ae5)" d="M25.151 29.916h-1.198v1.198h1.198v-1.198z"></path>
<path fill="#4d5ae5" style="fill: var(--color2, #4d5ae5)" d="M26.349 28.718l-1.198-0v1.198l1.198 0v-1.198z"></path>
<path fill="#4d5ae5" style="fill: var(--color2, #4d5ae5)" d="M23.953 28.718l-1.198 0v1.198l1.198-0v-1.198z"></path>
<path fill="#4d5ae5" style="fill: var(--color2, #4d5ae5)" d="M17.965 25.125h-1.198v1.198h1.198v-1.198z"></path>
<path fill="#4d5ae5" style="fill: var(--color2, #4d5ae5)" d="M17.965 27.52h-1.198v1.198h1.198v-1.198z"></path>
<path fill="#4d5ae5" style="fill: var(--color2, #4d5ae5)" d="M19.163 26.323l-1.198 0v1.198h1.198v-1.198z"></path>
<path fill="#4d5ae5" style="fill: var(--color2, #4d5ae5)" d="M16.767 26.323l-1.198-0v1.198h1.198v-1.198z"></path>
<path fill="#4d5ae5" style="fill: var(--color2, #4d5ae5)" d="M6.587 4.764h-1.198v1.198h1.198v-1.198z"></path>
<path fill="#4d5ae5" style="fill: var(--color2, #4d5ae5)" d="M6.587 7.16h-1.198v1.198h1.198v-1.198z"></path>
<path fill="#4d5ae5" style="fill: var(--color2, #4d5ae5)" d="M7.785 5.962l-1.198-0v1.198l1.198 0v-1.198z"></path>
<path fill="#4d5ae5" style="fill: var(--color2, #4d5ae5)" d="M5.389 5.962l-1.198 0v1.198l1.198-0v-1.198z"></path>
<path fill="#2e2f42" style="fill: var(--color1, #2e2f42)" d="M27.75 13.789c-0.323-0.435-0.796-0.716-1.334-0.791-0.54-0.077-1.073 0.065-1.504 0.395l-1.406 1.078-2.131 1.591-1.525-0.607c2.719-1.22 4.619-3.939 4.619-7.096 0-4.292-3.506-7.785-7.816-7.785s-7.816 3.492-7.816 7.785c0 1.556 0.465 3.003 1.258 4.22l-3.103-0.027c-0.002 0-0.004 0-0.005 0-0.010 0-0.017 0.005-0.026 0.005-0.059 0.002-0.117 0.014-0.174 0.035-0.014 0.005-0.029 0.008-0.043 0.015-0.007 0.003-0.014 0.004-0.022 0.007l-3.63 1.792c-0.001 0-0.001 0-0.001 0.001l-2.126 1.022c-0.023 0.010-0.047 0.024-0.071 0.040-0.847 0.564-1.136 1.672-0.672 2.577 0.247 0.481 0.668 0.836 1.186 0.998 0.199 0.062 0.403 0.093 0.605 0.093 0.325 0 0.647-0.080 0.943-0.237l1.558-0.829 2.542-1.313 1.523-0.009-6.11 6.081c-0.001 0.001-0.001 0.001-0.002 0.001l-1.503 1.497c-0.355 0.353-0.55 0.822-0.55 1.322s0.195 0.97 0.55 1.323c0.365 0.363 0.844 0.545 1.324 0.545s0.959-0.182 1.325-0.545l1.476-1.47 1.955-1.459 1.011 1.007-1.978 1.97c-0.001 0.001-0.001 0.001-0.002 0.001l-1.503 1.497c-0.355 0.353-0.55 0.822-0.55 1.322s0.195 0.97 0.55 1.323c0.365 0.363 0.845 0.545 1.325 0.545s0.96-0.182 1.325-0.545l3.909-3.892c0.001-0.001 0.001-0.001 0.001-0.002l1.134-1.123-0.004-0.004c0.007-0.007 0.017-0.010 0.025-0.017l5.8-6.353 3.897 0.555c0.028 0.004 0.056 0.006 0.084 0.006 0.072 0 0.142-0.017 0.21-0.043 0.020-0.007 0.037-0.017 0.056-0.026 0.022-0.011 0.044-0.017 0.065-0.031l3.608-2.395c0.013-0.009 0.020-0.023 0.033-0.033 0.014-0.011 0.032-0.016 0.045-0.029l1.428-1.337c0.743-0.696 0.845-1.836 0.238-2.652zM2.392 17.843c-0.195 0.104-0.416 0.125-0.627 0.058-0.21-0.065-0.38-0.208-0.479-0.402-0.181-0.352-0.076-0.781 0.241-1.013l1.475-0.71 0.504 1.474-1.114 0.592zM6.319 15.791l-1.738 0.898-0.493-1.441 2.276-1.123-0.044 1.666zM23.272 8.357c0 1.031-0.246 2.004-0.672 2.874l-4.695-2.132c-0.049-0.644-0.383-1.207-0.885-1.558l1.644-5.457c2.67 0.849 4.609 3.34 4.609 6.274zM10.036 8.357c0-3.632 2.969-6.587 6.618-6.587 0.284 0 0.562 0.024 0.837 0.059l-1.608 5.337c-0.021-0.001-0.042-0.007-0.064-0.007-1.159 0-2.103 0.94-2.103 2.096s0.943 2.096 2.103 2.096c0.78 0 1.453-0.43 1.817-1.061l4.337 1.97c-1.207 1.624-3.138 2.683-5.318 2.683-3.649 0-6.618-2.955-6.618-6.587zM16.723 9.256c0 0.495-0.406 0.898-0.905 0.898s-0.905-0.403-0.905-0.898c0-0.495 0.406-0.898 0.905-0.898s0.905 0.403 0.905 0.898zM2.768 26.125c-0.265 0.263-0.695 0.262-0.959 0.001-0.128-0.128-0.198-0.296-0.198-0.475s0.070-0.347 0.198-0.473l1.080-1.076 0.956 0.952-1.077 1.072zM6.376 30.317c-0.265 0.263-0.695 0.264-0.96 0.001-0.128-0.128-0.198-0.296-0.198-0.475s0.070-0.347 0.198-0.473l1.081-1.077 0.956 0.952-1.077 1.072zM10.285 26.422c-0.001 0.001-0.001 0.001-0.002 0.001l-1.982 1.976-0.956-0.952 1.98-1.971c0 0 0 0 0-0.001s0.001-0.001 0.002-0.001c0.045-0.045 0.073-0.099 0.101-0.152 0.008-0.016 0.023-0.029 0.029-0.045 0.019-0.046 0.022-0.096 0.029-0.144 0.004-0.028 0.016-0.053 0.016-0.081 0-0.040-0.014-0.079-0.023-0.119-0.007-0.036-0.007-0.072-0.021-0.107-0.023-0.056-0.062-0.106-0.102-0.154-0.011-0.013-0.016-0.030-0.028-0.043 0 0 0 0-0.001 0s-0.001-0.002-0.001-0.002l-1.804-1.797c-0.019-0.019-0.044-0.027-0.065-0.043-0.032-0.025-0.062-0.047-0.098-0.065-0.034-0.017-0.069-0.027-0.105-0.037-0.038-0.011-0.075-0.019-0.116-0.022-0.037-0.002-0.071 0.001-0.107 0.005-0.040 0.005-0.078 0.010-0.117 0.023-0.038 0.012-0.071 0.031-0.106 0.050-0.022 0.013-0.047 0.017-0.068 0.032l-1.991 1.486-1.011-1.007 2.694-2.679 4.896 4.815-1.041 1.032zM17.942 18.544c-0.017-0.002-0.034 0.004-0.051 0.003-0.044-0.002-0.086 0.001-0.129 0.008-0.034 0.006-0.066 0.013-0.099 0.024-0.038 0.013-0.073 0.031-0.108 0.053-0.034 0.020-0.064 0.042-0.093 0.069-0.014 0.013-0.032 0.019-0.045 0.033l-5.275 5.778-4.86-4.779 3.181-3.164c0.234-0.234 0.235-0.613 0.002-0.847-0.118-0.118-0.273-0.176-0.428-0.175l-2.491 0.014 0.031-1.805 3.485 0.030c1.42 1.453 3.401 2.359 5.593 2.359 0.491 0 0.97-0.051 1.437-0.138 0.045 0.036 0.089 0.072 0.146 0.095l2.706 1.078 0.371 1.846-3.371-0.48zM22.479 18.744l-0.352-1.749 1.624-1.213 1.063 1.411-2.335 1.551zM26.694 15.565l-0.941 0.881-1.046-1.388 0.934-0.716c0.174-0.134 0.394-0.189 0.61-0.161 0.217 0.031 0.408 0.144 0.539 0.319 0.243 0.328 0.202 0.784-0.096 1.064z"></path>
<path fill="#2e2f42" style="fill: var(--color1, #2e2f42)" d="M15.272 18.712l-2.406-2.395c-0.233-0.233-0.611-0.233-0.845 0l-2.405 2.395c-0.113 0.113-0.176 0.265-0.176 0.425s0.063 0.312 0.176 0.425l2.405 2.395c0.117 0.116 0.27 0.174 0.423 0.174s0.306-0.058 0.422-0.174l2.406-2.395c0.113-0.113 0.177-0.265 0.177-0.425s-0.063-0.312-0.177-0.425zM12.444 20.687l-1.557-1.55 1.557-1.55 1.558 1.55-1.558 1.55z"></path>
<path fill="#2e2f42" style="fill: var(--color1, #2e2f42)" d="M19.272 3.584l-0.289 1.163c0.080 0.020 1.951 0.507 1.951 2.413h1.198c-0-2.265-1.87-3.33-2.859-3.576z"></path>
<path fill="#2e2f42" style="fill: var(--color1, #2e2f42)" d="M22.132 8.357h-1.198v1.198h1.198v-1.198z"></path>
</symbol>
        <symbol id="twitter" viewBox="0 0 16 16" fill="none">
            <path fill="currentColor" d="M12.6 0.75h2.454l-5.36 6.142L16 15.25h-4.937l-3.867-5.07-4.425 5.07H0.316l5.733-6.57L0 0.75h5.063l3.495 4.633zM11.74 13.778h1.36L4.323 2.145H2.865z" />
            <defs>
                <clipPath id="clip0_1077779_61">
                    <rect fill="#fff" width="16" height="16" />
                </clipPath>
            </defs>
        </symbol>
        <symbol id="linkedin" viewBox="0 0 16 16" fill="none">
            <g fill="currentColor" clip-path="url(#clip0_1077779_61)">
                <path d="M15.996 16l4e-3-6e-4v-5.868c0-2.8707-0.618-5.082-3.974-5.082-1.6133 0-2.696 0.8853-3.138 1.7246l-0.0466 0 0-1.4566-3.182 0 0 10.682h3.3133V10.71c0-1.3926 0.264-2.7393 1.9887-2.7393 1.6993 0 1.7246 1.5893 1.7246 2.8287V16z" />
                <path d="M0.264 5.318l3.3174 0 0 10.682H0.264z" />
                <path d="M1.9214 0C0.8607 0 0 0.8607 0 1.9213s0.8607 1.9394 1.9214 1.9394 1.9213-0.8787 1.9213-1.9394C3.842 0.8607 2.9814 0 1.9214 0z" />
            </g>
        </symbol>
        <symbol id="instagram" viewBox="0 0 16 16" fill="none">
            <g fill="currentColor" clip-path="url(#clip0_1077779_61)">
                <path d="M15.9843 4.704c-0.0375-0.8501-0.175-1.4346-0.3719-1.941-0.2032-0.5376-0.5157-1.0189-0.9252-1.419-0.4001-0.4063-0.8846-0.7221-1.4159-0.922-0.5094-0.197-1.0908-0.3345-1.941-0.3719C10.4738 94e-4 10.2019 0 8.0296 0 5.8573 0 5.5854 94e-4 4.7321 0.0469 3.882 0.0844 3.2975 0.222 2.7912 0.4188 2.2535 0.6219 1.7722 0.9345 1.3721 1.344 0.9658 1.7441 0.6501 2.2286 0.45 2.7599 0.2531 3.2694 0.1156 3.8507 0.0781 4.7009c-0.0406 0.8565-0.05 1.1284-0.05 3.3007 0 2.1723 94e-4 2.4442 0.0469 3.2975 0.0374 0.8501 0.175 1.4346 0.372 1.941 0.2031 0.5376 0.5188 1.0189 0.9251 1.419 0.4001 0.4063 0.8846 0.7221 1.4159 0.9221 0.5095 0.1969 1.0908 0.3344 1.9411 0.3719C5.5823 15.9907 5.8543 16 8.0266 16c2.1723 0 2.4442-93e-4 3.2975-0.0469 0.8501-0.0375 1.4346-0.175 1.9409-0.3719 1.0753-0.4158 1.9254-1.2659 2.3412-2.3411 0.1968-0.5095 0.3344-1.0909 0.3719-1.941 0.0375-0.8533 0.0469-1.1252 0.0469-3.2975 0-2.1723-32e-4-2.4442-0.0407-3.2976zM14.5435 11.2366c-0.0345 0.7814-0.1657 1.2033-0.2751 1.4846-0.2689 0.6971-0.8221 1.2503-1.5191 1.5191-0.2813 0.1094-0.7063 0.2407-1.4847 0.275-0.8439 0.0376-1.097 0.0469-3.2318 0.0469-2.1348 0-2.3911-93e-4-3.232-0.0469-0.7814-0.0343-1.2033-0.1656-1.4846-0.275-0.3469-0.1282-0.6626-0.3313-0.9189-0.597-0.2657-0.2595-0.4688-0.572-0.597-0.9189-0.1094-0.2813-0.2407-0.7064-0.275-1.4847-0.0376-0.8439-0.0469-1.0971-0.0469-3.2319 0-2.1348 93e-4-2.3911 0.0469-3.2318 0.0343-0.7814 0.1656-1.2034 0.275-1.4847 0.1282-0.347 0.3313-0.6626 0.6002-0.919 0.2593-0.2657 0.5719-0.4688 0.9189-0.5969C3.6007 1.666 4.0258 1.5347 4.804 1.5003 5.6479 1.4628 5.9012 1.4534 8.0359 1.4534c2.1379 0 2.391 94e-4 3.2319 0.0469 0.7814 0.0344 1.2034 0.1657 1.4847 0.2751 0.3468 0.1281 0.6626 0.3312 0.9189 0.5969 0.2656 0.2594 0.4688 0.572 0.597 0.919 0.1094 0.2813 0.2406 0.7063 0.2751 1.4847 0.0375 0.8439 0.0469 1.097 0.0469 3.2318 0 2.1348-94e-4 2.3849-0.0469 3.2288z" />
                <path d="M8.0297 3.8914c-2.2692 0-4.1102 1.8409-4.1102 4.1101 0 2.2693 1.841 4.1102 4.1102 4.1102 2.2692 0 4.1101-1.8409 4.1101-4.1102 0-2.2692-1.8409-4.1101-4.1102-4.1101zM8.0297 10.6677c-1.4721 0-2.6662-1.194-2.6662-2.6662s1.1941-2.6661 2.6662-2.6661c1.4722 0 2.6661 1.1939 2.6661 2.6661s-1.1939 2.6662-2.6661 2.6662z" />
                <path d="M13.262 3.7289c0 0.5299-0.4297 0.9595-0.9597 0.9595-0.5299 0-0.9595-0.4296-0.9595-0.9595 0-0.53 0.4296-0.9596 0.9595-0.9596 0.53 0 0.9597 0.4296 0.9597 0.9596z" />
            </g>
        </symbol>
        <symbol id="facebook" viewBox="0 0 16 16" fill="none">
            <path fill="currentColor" d="M10.6647 2.6567l1.4606 0v-2.544C11.8733 0.078 11.0067 0 9.9973 0 7.8913 0 6.4487 1.3247 6.4487 3.7593l0 2.2407h-2.324l0 2.844h2.324l0 7.156H9.298V8.8447l2.23 0 0.354-2.844-2.5847 0 0-1.9594c7e-4-0.822 0.222-1.3846 1.3674-1.3846z" />
        </symbol>
        <symbol id="telegram" viewBox="0 0 24 20" fill="none">
            <path fill="currentColor" d="M24 0L0 11.25L7.66994 13.6172L19.5 4.375L10.5017 14.4913L10.509 14.4936L10.5 14.4913V20L14.8013 15.8183L20.2501 17.5L24 0Z"/>
        </symbol>
        <symbol id="person" viewBox="0 0 18 24">
            <path d="M9 12C10.6575 12 12 10.6575 12 9C12 7.3425 10.6575 6 9 6C7.3425 6 6 7.3425 6 9C6 10.6575 7.3425 12 9 12ZM9 13.5C6.9975 13.5 3 14.505 3 16.5V17.25C3 17.6625 3.3375 18 3.75 18H14.25C14.6625 18 15 17.6625 15 17.25V16.5C15 14.505 11.0025 13.5 9 13.5Z"/>
        </symbol>
        <symbol id="phone" viewBox="0 0 18 24">
            <path d="M14.2263 14.3651L12.3881 14.1552C11.9467 14.1046 11.5125 14.2566 11.2013 14.5677L9.86971 15.8993C7.8217 14.8572 6.14276 13.1855 5.10067 11.1303L6.43947 9.79144C6.75065 9.48025 6.90263 9.04605 6.85197 8.6046L6.6421 6.78092C6.55526 6.05 5.94013 5.5 5.20198 5.5H3.95002C3.13226 5.5 2.452 6.18026 2.50266 6.99802C2.88621 13.1783 7.82894 18.1138 14.0019 18.4973C14.8197 18.548 15.4999 17.8677 15.4999 17.05V15.798C15.5072 15.0671 14.9572 14.452 14.2263 14.3651Z"/>
        </symbol>
        <symbol id="email" viewBox="0 0 18 24">
            <path d="M15 6H3C2.175 6 1.5075 6.675 1.5075 7.5L1.5 16.5C1.5 17.325 2.175 18 3 18H15C15.825 18 16.5 17.325 16.5 16.5V7.5C16.5 6.675 15.825 6 15 6ZM14.7 9.1875L9.3975 12.5025C9.1575 12.6525 8.8425 12.6525 8.6025 12.5025L3.3 9.1875C3.1125 9.0675 3 8.865 3 8.6475C3 8.145 3.5475 7.845 3.975 8.1075L9 11.25L14.025 8.1075C14.4525 7.845 15 8.145 15 8.6475C15 8.865 14.8875 9.0675 14.7 9.1875Z"/>
        </symbol>
        <symbol id="check-mark" viewBox="0 0 10 7" fill="none">
        <path fill="currentColor" d="M8.03216 0.222711C8.19651 0.0782836 8.41521 -0.00156167 8.64211 2.31488e-05C8.86902 0.00160797 9.08639 0.0844991 9.24835 0.231205C9.41031 0.377912 9.50419 0.576958 9.51019 0.786344C9.51618 0.995731 9.43383 1.19908 9.28049 1.35348L4.62549 6.72733C4.54545 6.80691 4.44884 6.87078 4.34145 6.91511C4.23405 6.95944 4.11808 6.98332 4.00045 6.98533C3.88283 6.98734 3.76598 6.96744 3.65688 6.92681C3.54778 6.88618 3.44867 6.82566 3.36549 6.74886L0.278493 3.89933C0.192525 3.82538 0.123573 3.73621 0.0757487 3.63714C0.0279248 3.53806 0.00220909 3.43111 0.000136173 3.32266C-0.00193674 3.21421 0.0196756 3.10649 0.0636835 3.00591C0.107691 2.90534 0.173193 2.81398 0.256282 2.73729C0.33937 2.66059 0.438343 2.60012 0.547296 2.5595C0.656249 2.51888 0.77295 2.49893 0.890436 2.50084C1.00792 2.50276 1.12379 2.52649 1.23112 2.57064C1.33845 2.61478 1.43505 2.67843 1.51516 2.75779L3.95816 5.01179L8.00999 0.246403C8.01729 0.238112 8.02508 0.230202 8.03333 0.222711H8.03216Z"/>
        </symbol>
        <symbol id="close" viewBox="0 0 8 8" fill="">
            <path fill="" d="M8 0.8057 7.1943 0 4 3.1943 0.8057 0 0 0.8057 3.1943 4 0 7.1943 0.8057 8 4 4.8057 7.1943 8 8 7.1943 4.8057 4z" />
        </symbol>
</defs>
</svg>
